<?xml version="1.0" encoding="utf-8"?>
<!-- Generator: Adobe Illustrator 19.0.0, SVG Export Plug-In . SVG Version: 6.00 Build 0)  -->
<svg version="1.1" id="layer" xmlns="http://www.w3.org/2000/svg" xmlns:xlink="http://www.w3.org/1999/xlink" x="0px" y="0px"
	 viewBox="-153 -46 652 652" style="enable-background:new -153 -46 652 652;" xml:space="preserve">
<style type="text/css">
	.st2{fill:#FFFFFF;}
</style>
<rect x="273.1" y="231.6" width="195.6" height="86.8"/>
<path class="st2" d="M316.7,252.5l7.5-3.7v42.6l-7.5,3.6c-12.8-1.1-22.6-7.9-22.6-16.2c0-7.6,8.5-14,19.9-15.8v4.9
	c-7.2,1.6-12.3,5.9-12.3,10.9c0,5.6,6.5,10.3,15.1,11.4V252.5z M343.9,275.7l-1-10.8l-3.9,2.2c-3.3-2-7.4-3.4-11.9-4.1v4.9
	c2.4,0.5,4.5,1.4,6.3,2.4l-4.1,2.3L343.9,275.7z M351.7,276.5c0,1.4,0.2,2.8,0.6,4.1c0.4,1.3,1,2.5,1.9,3.5c0.8,1,1.9,1.8,3.1,2.4
	c1.2,0.6,2.7,0.9,4.4,0.9c1.7,0,3.1-0.3,4.4-0.9c1.2-0.6,2.3-1.4,3.1-2.4c0.8-1,1.5-2.2,1.9-3.5c0.4-1.3,0.6-2.7,0.6-4.1
	c0-1.4-0.2-2.8-0.6-4.1c-0.4-1.3-1-2.5-1.9-3.5c-0.8-1-1.9-1.8-3.1-2.4c-1.2-0.6-2.7-0.9-4.4-0.9c-1.7,0-3.1,0.3-4.4,0.9
	c-1.2,0.6-2.3,1.4-3.1,2.4c-0.8,1-1.5,2.2-1.9,3.5C351.9,273.7,351.7,275.1,351.7,276.5z M354.5,276.5c0-1.1,0.1-2.1,0.4-3.1
	c0.3-1,0.7-1.9,1.3-2.8c0.6-0.8,1.3-1.5,2.2-2c0.9-0.5,2-0.7,3.3-0.7c1.3,0,2.4,0.3,3.3,0.7c0.9,0.5,1.7,1.2,2.2,2
	c0.6,0.8,1,1.7,1.3,2.8c0.3,1,0.4,2.1,0.4,3.1c0,1.1-0.1,2.1-0.4,3.1c-0.3,1-0.7,1.9-1.3,2.8c-0.6,0.8-1.3,1.5-2.2,2
	c-0.9,0.5-2,0.7-3.3,0.7c-1.3,0-2.4-0.2-3.3-0.7c-0.9-0.5-1.7-1.2-2.2-2c-0.6-0.8-1-1.7-1.3-2.8
	C354.6,278.6,354.5,277.6,354.5,276.5z M374.4,271.9v20.9h2.5v-7.8h0.1c0.3,0.4,0.6,0.8,1,1.1c0.4,0.3,0.8,0.5,1.3,0.7
	c0.4,0.2,0.9,0.3,1.4,0.4c0.5,0.1,0.9,0.1,1.2,0.1c1.1,0,2.2-0.2,3-0.6c0.9-0.4,1.6-1,2.2-1.7c0.6-0.7,1-1.5,1.3-2.5
	c0.3-1,0.4-2,0.4-3c0-1.1-0.1-2.1-0.4-3c-0.3-1-0.7-1.8-1.3-2.5c-0.6-0.7-1.3-1.3-2.2-1.7c-0.9-0.4-1.9-0.6-3.1-0.6
	c-1.1,0-2,0.2-2.9,0.6c-0.9,0.4-1.5,1-1.9,1.8h-0.1v-2H374.4z M386,279.3c0,0.7-0.1,1.5-0.2,2.2c-0.2,0.7-0.4,1.3-0.8,1.9
	c-0.4,0.5-0.8,1-1.4,1.3c-0.6,0.3-1.3,0.5-2.1,0.5s-1.6-0.2-2.2-0.5c-0.6-0.3-1.1-0.7-1.5-1.3c-0.4-0.5-0.7-1.1-0.8-1.8
	c-0.2-0.7-0.3-1.4-0.3-2.1c0-0.7,0.1-1.4,0.2-2.1c0.2-0.7,0.4-1.3,0.8-1.8c0.4-0.5,0.8-1,1.4-1.3c0.6-0.3,1.3-0.5,2.1-0.5
	c0.8,0,1.5,0.2,2.1,0.5c0.6,0.3,1.1,0.7,1.5,1.3c0.4,0.5,0.7,1.1,0.8,1.8C385.9,277.9,386,278.6,386,279.3z M404.4,282.2h-2.5
	c-0.2,1-0.7,1.7-1.3,2.2c-0.7,0.5-1.5,0.7-2.6,0.7c-0.8,0-1.5-0.1-2.1-0.4c-0.6-0.3-1.1-0.6-1.5-1.1c-0.4-0.5-0.7-1-0.8-1.6
	c-0.2-0.6-0.3-1.2-0.2-1.9h11.3c0-0.9,0-1.9-0.2-2.9c-0.2-1-0.6-1.9-1.1-2.8c-0.5-0.9-1.2-1.6-2.1-2.1c-0.9-0.6-2-0.8-3.3-0.8
	c-1,0-2,0.2-2.8,0.6c-0.9,0.4-1.6,0.9-2.2,1.6c-0.6,0.7-1.1,1.5-1.5,2.5c-0.4,1-0.5,2-0.5,3.2c0,1.1,0.2,2.2,0.5,3.2
	c0.3,1,0.8,1.8,1.4,2.5c0.6,0.7,1.3,1.2,2.2,1.6c0.9,0.4,1.9,0.6,3.1,0.6c1.7,0,3.1-0.4,4.3-1.3C403.3,285.1,404,283.9,404.4,282.2z
	 M402,278h-8.7c0-0.6,0.2-1.1,0.4-1.7c0.2-0.5,0.5-1,0.9-1.4c0.4-0.4,0.8-0.7,1.3-0.9c0.5-0.2,1.1-0.3,1.7-0.3
	c0.6,0,1.2,0.1,1.7,0.3c0.5,0.2,1,0.5,1.3,0.9c0.4,0.4,0.7,0.8,0.9,1.4C401.8,276.8,401.9,277.4,402,278z M406.8,271.9V287h2.5v-8.5
	c0-0.7,0.1-1.3,0.3-1.9c0.2-0.6,0.5-1.1,0.8-1.5c0.4-0.4,0.8-0.8,1.4-1c0.6-0.2,1.2-0.3,2-0.3c1,0,1.7,0.3,2.2,0.8s0.8,1.3,0.8,2.2
	V287h2.5V277c0-0.8-0.1-1.6-0.2-2.2c-0.2-0.7-0.5-1.3-0.9-1.7c-0.4-0.5-0.9-0.9-1.6-1.1c-0.7-0.3-1.5-0.4-2.5-0.4
	c-2.2,0-3.9,0.9-4.9,2.7h-0.1v-2.4H406.8z M423.1,266.1V287h3.1v-20.9H423.1z M429.9,266.1V287h7.2c1.7,0,3.2-0.2,4.5-0.7
	c1.3-0.5,2.3-1.2,3.1-2.1c0.8-0.9,1.4-2.1,1.8-3.4c0.4-1.4,0.6-2.9,0.6-4.7c0-3.3-0.9-5.8-2.6-7.5c-1.7-1.6-4.2-2.5-7.4-2.5H429.9z
	 M432.6,284.6v-16.2h4.7c1.3,0,2.4,0.2,3.2,0.5c0.9,0.4,1.6,0.9,2.1,1.6c0.6,0.7,1,1.5,1.2,2.5c0.2,1,0.4,2.1,0.4,3.3
	c0,1.3-0.1,2.4-0.4,3.3c-0.3,0.9-0.6,1.7-1,2.3c-0.4,0.6-0.9,1.1-1.4,1.4c-0.5,0.4-1,0.6-1.6,0.8c-0.5,0.2-1,0.3-1.5,0.4
	c-0.5,0.1-0.9,0.1-1.2,0.1H432.6z"/>
</svg>
